<svg xmlns="http://www.w3.org/2000/svg" version="1.1" xmlns:xlink="http://www.w3.org/1999/xlink" xmlns:svgjs="http://svgjs.com/svgjs" width="512" height="512" x="0" y="0" viewBox="0 0 32 32" style="enable-background:new 0 0 512 512" xml:space="preserve" class=""><g><g fill="rgb(0,0,0)"><path d="m27.16 8.73a3 3 0 0 0 -3-2.73h-3.23c-.35-2.58-2.06-4-4.93-4s-4.58 1.42-4.93 4h-3.24a3 3 0 0 0 -3 2.73l-1.64 18a3 3 0 0 0 3 3.27h19.62a3 3 0 0 0 3-3.27zm-11.16-4.73c1.73 0 2.63.62 2.9 2h-5.8c.27-1.38 1.17-2 2.9-2zm10.55 23.67a1 1 0 0 1 -.74.33h-19.62a1 1 0 0 1 -.74-.33 1 1 0 0 1 -.26-.76l1.64-18a1 1 0 0 1 1-.91h16.34a1 1 0 0 1 1 .91l1.64 18a1 1 0 0 1 -.26.76z" fill="#ffffff" data-original="#000000" class=""></path><path d="m20 11a1 1 0 0 0 -1 1c0 6-2.26 6-3 6s-3 0-3-6a1 1 0 0 0 -2 0c0 6.61 2.72 8 5 8s5-1.39 5-8a1 1 0 0 0 -1-1z" fill="#ffffff" data-original="#000000" class=""></path></g></g></svg>