<svg xmlns="http://www.w3.org/2000/svg" version="1.1" xmlns:xlink="http://www.w3.org/1999/xlink" xmlns:svgjs="http://svgjs.com/svgjs" width="512" height="512" x="0" y="0" viewBox="0 0 455 455.987" style="enable-background:new 0 0 512 512" xml:space="preserve" class=""><g><path d="m30.886719 213.921875c1.949219 10.988281 11.472656 19.015625 22.632812 19.078125h174.734375c11.164063-.0625 20.683594-8.089844 22.636719-19.078125l30.027344-166.835937c1.207031-6.707032-.621094-13.601563-4.992188-18.832032-4.367187-5.226562-10.832031-8.25-17.644531-8.253906h-22.742188v18h10.777344c4.457032.023438 8.671875 2.011719 11.519532 5.433594 2.847656 3.425781 4.035156 7.933594 3.246093 12.316406l-26.128906 145.109375c-1.4375 8.128906-8.472656 14.078125-16.730469 14.140625h-154.667968c-8.257813-.0625-15.296876-6.011719-16.734376-14.144531l-26.125-145.1875c-.785156-4.375.40625-8.871094 3.253907-12.28125 2.851562-3.410157 7.066406-5.382813 11.507812-5.386719h11.082031v-18h-23.042968c-6.824219.023438-13.289063 3.0625-17.65625 8.304688-4.367188 5.242187-6.191406 12.148437-4.980469 18.863281zm0 0" fill="#3a3a3a" data-original="#000000"></path><path d="m133.539062 247v90.644531c0 65.253907 53.246094 118.34375 118.5 118.34375 65.257813 0 118.5-53.089843 118.5-118.34375v-143.5625c-2.894531.445313-5.820312.671875-8.75.675781-1.769531 0-3.25-.09375-5.25-.25v143.136719c0 57.535157-46.960937 104.34375-104.5 104.34375-57.535156 0-104.5-46.808593-104.5-104.34375v-90.644531zm0 0" fill="#3a3a3a" data-original="#000000"></path><path d="m60.539062 0h16v58h-16zm0 0" fill="#3a3a3a" data-original="#000000"></path><path d="m205.539062 0h16v58h-16zm0 0" fill="#3a3a3a" data-original="#000000"></path><path d="m361.824219 158.257812c11.195312 0 20.269531-9.074218 20.269531-20.269531 0-11.191406-9.074219-20.265625-20.269531-20.265625-11.195313 0-20.269531 9.074219-20.269531 20.265625.015624 11.191407 9.082031 20.257813 20.269531 20.269531zm0 0" fill="#3a3a3a" data-original="#000000"></path><path d="m361.824219 180.757812c23.621093 0 42.769531-19.148437 42.769531-42.769531 0-23.621093-19.148438-42.769531-42.769531-42.769531-23.621094 0-42.769531 19.152344-42.769531 42.769531.027343 23.609375 19.160156 42.742188 42.769531 42.769531zm0-77.035156c18.925781 0 34.269531 15.339844 34.269531 34.265625s-15.34375 34.269531-34.269531 34.269531-34.269531-15.34375-34.269531-34.269531c.023437-18.914062 15.351562-34.246093 34.269531-34.265625zm0 0" fill="#3a3a3a" data-original="#000000"></path></g></svg>